<?xml version="1.0" standalone="no"?><!DOCTYPE svg PUBLIC "-//W3C//DTD SVG 1.1//EN" "http://www.w3.org/Graphics/SVG/1.1/DTD/svg11.dtd"><svg t="1618996159475" class="icon" viewBox="0 0 1024 1024" version="1.1" xmlns="http://www.w3.org/2000/svg" p-id="5184" xmlns:xlink="http://www.w3.org/1999/xlink" width="32" height="32"><defs><style type="text/css"></style></defs><path d="M802.407 150.498H219.208c-65.286 0-118.4 53.114-118.4 118.4v486.203c0 65.286 53.114 118.4 118.4 118.4h583.199c65.286 0 118.4-53.114 118.4-118.4V268.898c0.001-65.286-53.114-118.4-118.4-118.4z m-641.599 118.4c0-32.202 26.198-58.4 58.4-58.4h583.199c32.202 0 58.4 26.198 58.4 58.4V411c-59.444 1.595-108.189 17.855-148.271 49.332-40.914 32.129-66.164 74.993-88.441 112.812-17.776 30.178-34.567 58.683-55.913 75.786-14.656 11.744-37.417 24.164-83.72 15.906-162.888-29.049-263.715 43.935-322.625 101.126a58.451 58.451 0 0 1-1.028-10.86V268.898z m641.599 544.604H219.208c-6.07 0-11.925-0.933-17.433-2.659 51.506-50.425 135.278-111.348 272.152-86.939 13.45 2.398 26.248 3.602 38.447 3.602 36.046-0.002 66.818-10.513 93.326-31.753 29.937-23.988 50.351-58.643 70.092-92.156 39-66.207 76.033-129.039 185.016-132.566v284.071c0 32.202-26.199 58.4-58.401 58.4z" p-id="5185" fill="#494949"></path><path d="M336.017 460.339c49.536 0 89.836-40.3 89.836-89.836s-40.3-89.836-89.836-89.836-89.836 40.3-89.836 89.836 40.299 89.836 89.836 89.836z m0-113.673c13.144 0 23.836 10.693 23.836 23.836s-10.693 23.836-23.836 23.836-23.836-10.693-23.836-23.836 10.692-23.836 23.836-23.836z" p-id="5186" fill="#494949"></path></svg>